# xmcd
#
# Track frame offsets: 
#        150
#        12114
#        26669
#        39803
#        53362
#        64852
#        79470
#        91789
#        103363
#        118044
#        135239
#        147844
#        162350
#        172948
#        185887
#        200484
#
# Disc length: 2848 seconds
#
# Revision: 0
# Processed by: cddbd v1.5.2PL0 Copyright (c) Steve Scherf et al.
# Submitted via: ExactAudioCopy v0.95b3
#
DISCID=d00b1e10
DTITLE=The Louvin Brothers - Tragic Songs of Life
DYEAR=1956
DGENRE=Bluegrass
TTITLE0=Kentucky
TTITLE1=I'll Be All Smiles Tonight
TTITLE2=Let Her Go, God Bless Her
TTITLE3=What is Home Without Love
TTITLE4=A Tiny Broken Heart
TTITLE5=In the Pines
TTITLE6=Alabama
TTITLE7=Katie Dear
TTITLE8=My Brother's Will
TTITLE9=Knoxville Girl
TTITLE10=Take the News to Mother
TTITLE11=Mary of the Wild Moor
TTITLE12=Satan Lied to Me (extra)
TTITLE13=Pray for Me (extra)
TTITLE14=Lord, I'm coming Home (extra)
TTITLE15=Thankful (extra)
EXTD=
EXTT0=
EXTT1=
EXTT2=
EXTT3=
EXTT4=
EXTT5=
EXTT6=
EXTT7=
EXTT8=
EXTT9=
EXTT10=
EXTT11=
EXTT12=
EXTT13=
EXTT14=
EXTT15=
PLAYORDER=
